# xmcd
#
# Track frame offsets:
# 150
# 16340
# 30584
# 44702
# 64197
# 80927
# 93352
# 108662
# 124111
# 139693
# 156900
# 170544
# 188142
#
# Disc length: 2747 seconds
#
#
# Revision: 0
# Processed by: cddbd v1.5.1PL2 Copyright (c) Steve Scherf et al.
# Submitted via: FreeRIP 2.945 
#
DISCID=b50ab90d
DTITLE=Gian e Giovani - Te amo
DYEAR=2006
DGENRE=Country
TTITLE0=TE amo
TTITLE1=Alma gemea
TTITLE2=Loira gelada, morena quente
TTITLE3=A Menina da loja
TTITLE4=Agora chega
TTITLE5=Coice de vaca
TTITLE6=Da pra ver no seu olhar
TTITLE7=Por que sera
TTITLE8=Porta-Bandeira
TTITLE9=Coracao aberto
TTITLE10=Peao da vitrine
TTITLE11=O que e voce pra mim
TTITLE12=Cantinho de saudade
EXTD=
EXTT0=
EXTT1=
EXTT2=
EXTT3=
EXTT4=
EXTT5=
EXTT6=
EXTT7=
EXTT8=
EXTT9=
EXTT10=
EXTT11=
EXTT12=
PLAYORDER=
